<svg width="48" height="48" viewBox="0 0 48 48" fill="none" xmlns="http://www.w3.org/2000/svg">
<g clip-path="url(#clip0_1452_36389)">
<rect width="48" height="48" fill="white"/>
<g style="mix-blend-mode:multiply">
<path d="M31.2381 10.3349L16.8108 6C14.9996 6 13.316 7.01527 12.3977 8.67176L5.68875 20.8282C4.77042 22.4847 4.77042 24.5153 5.68875 26.1718L12.3977 38.3282C13.316 39.9847 14.9996 41 16.8108 41H31.1892C33.0004 41 34.684 39.9847 35.6023 38.3282L42.3112 30.4466C43.2296 28.7901 43.2296 26.7595 42.3112 25.1031L35.6023 14.0153C34.684 12.3588 32.9722 10.656 31.2381 10.3349Z" fill="#FAE041"/>
</g>
<rect x="21" y="17" width="22" height="15" fill="white"/>
<g clip-path="url(#clip1_1452_36389)">
<path d="M22.5792 34.3333C21.9569 34.3333 21.4222 34.1194 20.975 33.6917C20.5472 33.2444 20.3333 32.7097 20.3333 32.0875V28.3542H22.5792V32.0875H41.4208V17.9125H22.5792V21.6458H20.3333V17.9125C20.3333 17.2903 20.5472 16.7653 20.975 16.3375C21.4222 15.8903 21.9569 15.6667 22.5792 15.6667H41.4208C42.0431 15.6667 42.5681 15.8903 42.9958 16.3375C43.4431 16.7653 43.6667 17.2903 43.6667 17.9125V32.0875C43.6667 32.7097 43.4431 33.2444 42.9958 33.6917C42.5681 34.1194 42.0431 34.3333 41.4208 34.3333H22.5792ZM31.4167 30.2208L29.8417 28.6167L32.35 26.1083H20.3333V23.8917H32.35L29.8417 21.3833L31.4167 19.7792L36.6375 25L31.4167 30.2208Z" fill="#2E3033"/>
</g>
</g>
<defs>
<clipPath id="clip0_1452_36389">
<rect width="48" height="48" fill="white"/>
</clipPath>
<clipPath id="clip1_1452_36389">
<rect width="52" height="52" fill="white" transform="translate(6 -1)"/>
</clipPath>
</defs>
</svg>
