<svg width="48" height="48" viewBox="0 0 48 48" fill="none" xmlns="http://www.w3.org/2000/svg">
<rect width="48" height="48" fill="white"/>
<g style="mix-blend-mode:multiply">
<path d="M28.2001 9.3141C18.6681 -1.3757 1.33149 9.58831 6.97552 22.737L11.3783 32.9941C12.7948 36.294 15.5653 38.8267 18.9939 39.9573L25.7118 42.1715C38.0296 46.2314 47.9145 31.4228 39.3205 21.7847L28.2001 9.3141Z" fill="#20BEFF"/>
</g>
<rect x="8" y="16" width="18" height="18" fill="white"/>
<g clip-path="url(#clip0_1454_36376)">
<path d="M8.74583 35.5C8.12361 35.5 7.58889 35.2861 7.14167 34.8583C6.71389 34.4111 6.5 33.8764 6.5 33.2542V16.7458C6.5 16.1236 6.71389 15.5986 7.14167 15.1708C7.58889 14.7236 8.12361 14.5 8.74583 14.5H25.2542C25.8764 14.5 26.4014 14.7236 26.8292 15.1708C27.2764 15.5986 27.5 16.1236 27.5 16.7458V19.1083H25.2542V16.7458H8.74583V33.2542H25.2542V30.8917H27.5V33.2542C27.5 33.8764 27.2764 34.4111 26.8292 34.8583C26.4014 35.2861 25.8764 35.5 25.2542 35.5H8.74583ZM22.8917 30.775L21.3458 29.2L24.3792 26.1083H13.6167V23.8917H24.3792L21.3458 20.8L22.8917 19.225L28.6667 25L22.8917 30.775Z" fill="#2E3033"/>
</g>
<defs>
<clipPath id="clip0_1454_36376">
<rect width="34" height="34" fill="white" transform="translate(0 8)"/>
</clipPath>
</defs>
</svg>
